<?xml version="1.0" encoding="UTF-8"?><svg id="Laag_1" xmlns="http://www.w3.org/2000/svg" viewBox="0 0 44 44"><defs><style>.cls-1{fill:#ff3338;}.cls-2{fill:#ab46a4;}.cls-3{fill:#c9c9c9;}.cls-4{fill:#2780e7;}</style></defs><g id="Group_292" transform="translate(10086 15033)"><g id="Group_310" transform="translate(-42)"><circle id="Ellipse_269" class="cls-3" cx="22" cy="22" r="22"/><path id="Path_340" class="cls-1" d="M27.45,32.2c10.73-.12,13.1-15.82,13.1-10.22,0,10.25-8.31,18.56-18.56,18.56-10.25,0-18.56-8.31-18.56-18.56,.24-8.58,9.61-10.44,13.63-5.31,4.02,5.13-.34,15.65,10.4,15.53Z"/><path id="Path_339" class="cls-4" d="M27.13,33.37c10.11-.09,13.05-12.85,13.05-8.69-.18,7.76-8.44,15.81-18.1,15.81S4.49,33.4,4.49,25.79c.23-6.37,8.06-6.24,9.71-2.11s2.82,9.78,12.93,9.69Z"/><ellipse id="Ellipse_270" class="cls-2" cx="19" cy="7.5" rx="3" ry="2.5"/><ellipse id="Ellipse_271" class="cls-4" cx="31.5" cy="15" rx="4.5" ry="5"/></g></g></svg>